<svg width="16" height="17" viewBox="0 0 16 17" fill="none" xmlns="http://www.w3.org/2000/svg">
<path d="M3.64062 16.5V5.98828H0.371094V16.5H3.64062ZM1.98828 4.58203C3.04297 4.58203 3.88672 3.70312 3.88672 2.64844C3.88672 1.62891 3.04297 0.785156 1.98828 0.785156C0.96875 0.785156 0.125 1.62891 0.125 2.64844C0.125 3.70312 0.96875 4.58203 1.98828 4.58203ZM15.8398 16.5H15.875V10.7344C15.875 7.92188 15.2422 5.74219 11.9375 5.74219C10.3555 5.74219 9.30078 6.62109 8.84375 7.42969H8.80859V5.98828H5.67969V16.5H8.94922V11.2969C8.94922 9.92578 9.19531 8.625 10.8828 8.625C12.5703 8.625 12.6055 10.1719 12.6055 11.4023V16.5H15.8398Z" fill="#292F36"/>
</svg>
